<svg id="visual" viewBox="0 0 900 675" width="900" height="675" xmlns="http://www.w3.org/2000/svg" xmlns:xlink="http://www.w3.org/1999/xlink" version="1.1"><rect width="900" height="675" fill="#24a291"></rect><g><g transform="translate(676 10)"><path d="M96 -31.2C109.2 9.6 94.4 59.5 61.1 83.6C27.8 107.7 -24 106 -57.3 81.2C-90.7 56.5 -105.6 8.6 -93 -31.3C-80.4 -71.3 -40.2 -103.5 0.6 -103.7C41.4 -103.9 82.7 -72.1 96 -31.2Z" stroke="#b0bacb" fill="none" stroke-width="20"></path></g><g transform="translate(168 395)"><path d="M81.5 -26.3C92.8 8.4 80.4 50.9 52.7 70.6C25.1 90.2 -17.8 86.8 -45.8 65.8C-73.8 44.8 -86.9 6.1 -76.8 -26.9C-66.7 -59.9 -33.4 -87.2 0.9 -87.5C35.1 -87.8 70.2 -61 81.5 -26.3Z" stroke="#b0bacb" fill="none" stroke-width="20"></path></g><g transform="translate(111 76)"><path d="M84.5 -29.3C95.3 5.5 79.8 47 51.1 67.1C22.4 87.2 -19.4 85.8 -49.1 64.9C-78.7 44 -96 3.6 -85.8 -30.6C-75.6 -64.7 -37.8 -92.6 -0.4 -92.5C36.9 -92.3 73.8 -64.1 84.5 -29.3Z" stroke="#b0bacb" fill="none" stroke-width="20"></path></g><g transform="translate(549 561)"><path d="M57.6 -17.7C65.7 6.2 57.1 36.5 37.1 51C17.1 65.6 -14.4 64.3 -36.7 48.6C-59 32.8 -72.2 2.5 -64.6 -20.7C-56.9 -44 -28.5 -60.3 -1.8 -59.7C24.8 -59.1 49.5 -41.6 57.6 -17.7Z" stroke="#b0bacb" fill="none" stroke-width="20"></path></g><g transform="translate(885 656)"><path d="M75.2 -23C86.1 9.2 75.8 49.7 49.3 69.2C22.9 88.7 -19.7 87.2 -49.8 66C-79.9 44.7 -97.6 3.6 -87.2 -27.8C-76.8 -59.2 -38.4 -80.9 -3.1 -79.9C32.1 -78.9 64.2 -55.1 75.2 -23Z" stroke="#b0bacb" fill="none" stroke-width="20"></path></g><g transform="translate(807 294)"><path d="M66.9 -20.7C76.1 6.3 65.4 40.9 42.5 57.2C19.6 73.5 -15.5 71.6 -40 54C-64.5 36.5 -78.4 3.3 -69.9 -22.9C-61.5 -49 -30.7 -68.1 -0.9 -67.8C28.9 -67.5 57.8 -47.8 66.9 -20.7Z" stroke="#b0bacb" fill="none" stroke-width="20"></path></g></g></svg>