<svg id="visual" viewBox="0 0 900 675" width="900" height="675" xmlns="http://www.w3.org/2000/svg" xmlns:xlink="http://www.w3.org/1999/xlink" version="1.1"><g stroke-width="1" stroke-linejoin="bevel"><path d="M461 294.3L380 251.3L408 396.7Z" fill="#596066" stroke="#596066"></path><path d="M380 251.3L308 366.7L408 396.7Z" fill="#596066" stroke="#596066"></path><path d="M504 161.9L366 216.9L380 251.3Z" fill="#4f5356" stroke="#4f5356"></path><path d="M380 251.3L293 271.3L308 366.7Z" fill="#575c62" stroke="#575c62"></path><path d="M336 205.9L293 271.3L380 251.3Z" fill="#47494b" stroke="#47494b"></path><path d="M408 396.7L488 397.7L461 294.3Z" fill="#596066" stroke="#596066"></path><path d="M366 216.9L336 205.9L380 251.3Z" fill="#575c62" stroke="#575c62"></path><path d="M308 366.7L392 463.1L408 396.7Z" fill="#4a4c4f" stroke="#4a4c4f"></path><path d="M408 396.7L392 463.1L488 397.7Z" fill="#5c6369" stroke="#5c6369"></path><path d="M192 399.7L317 483.1L308 366.7Z" fill="#616a71" stroke="#616a71"></path><path d="M308 366.7L317 483.1L392 463.1Z" fill="#616a71" stroke="#616a71"></path><path d="M392 463.1L519 461.1L488 397.7Z" fill="#4f5356" stroke="#4f5356"></path><path d="M578 191.9L504 161.9L461 294.3Z" fill="#5e676d" stroke="#5e676d"></path><path d="M409 563.6L519 461.1L392 463.1Z" fill="#4a4c4f" stroke="#4a4c4f"></path><path d="M336 205.9L224 225.9L293 271.3Z" fill="#47494b" stroke="#47494b"></path><path d="M293 271.3L192 399.7L308 366.7Z" fill="#5e676d" stroke="#5e676d"></path><path d="M618 291.3L461 294.3L488 397.7Z" fill="#54595e" stroke="#54595e"></path><path d="M461 294.3L504 161.9L380 251.3Z" fill="#5c6369" stroke="#5c6369"></path><path d="M366 216.9L413 70.4L336 205.9Z" fill="#4a4c4f" stroke="#4a4c4f"></path><path d="M336 205.9L280 90.4L224 225.9Z" fill="#5c6369" stroke="#5c6369"></path><path d="M175 254.3L192 399.7L293 271.3Z" fill="#616a71" stroke="#616a71"></path><path d="M631 345.7L618 291.3L488 397.7Z" fill="#4f5356" stroke="#4f5356"></path><path d="M618 291.3L578 191.9L461 294.3Z" fill="#47494b" stroke="#47494b"></path><path d="M224 225.9L175 254.3L293 271.3Z" fill="#616a71" stroke="#616a71"></path><path d="M519 461.1L631 345.7L488 397.7Z" fill="#51565a" stroke="#51565a"></path><path d="M286 553.6L409 563.6L317 483.1Z" fill="#4f5356" stroke="#4f5356"></path><path d="M317 483.1L409 563.6L392 463.1Z" fill="#54595e" stroke="#54595e"></path><path d="M168 517.1L286 553.6L317 483.1Z" fill="#4c4f53" stroke="#4c4f53"></path><path d="M482 64.4L413 70.4L504 161.9Z" fill="#5c6369" stroke="#5c6369"></path><path d="M504 161.9L413 70.4L366 216.9Z" fill="#5c6369" stroke="#5c6369"></path><path d="M224 225.9L133 207.9L175 254.3Z" fill="#5c6369" stroke="#5c6369"></path><path d="M413 70.4L280 90.4L336 205.9Z" fill="#596066" stroke="#596066"></path><path d="M133 207.9L123 297.3L175 254.3Z" fill="#54595e" stroke="#54595e"></path><path d="M175 254.3L123 297.3L192 399.7Z" fill="#616a71" stroke="#616a71"></path><path d="M192 399.7L168 517.1L317 483.1Z" fill="#51565a" stroke="#51565a"></path><path d="M624 75.4L482 64.4L504 161.9Z" fill="#4c4f53" stroke="#4c4f53"></path><path d="M217 87.4L133 207.9L224 225.9Z" fill="#575c62" stroke="#575c62"></path><path d="M607 604.6L631 496.1L519 461.1Z" fill="#616a71" stroke="#616a71"></path><path d="M519 461.1L631 496.1L631 345.7Z" fill="#47494b" stroke="#47494b"></path><path d="M212 0L217 87.4L280 90.4Z" fill="#5e676d" stroke="#5e676d"></path><path d="M280 90.4L217 87.4L224 225.9Z" fill="#5c6369" stroke="#5c6369"></path><path d="M293 0L280 90.4L413 70.4Z" fill="#596066" stroke="#596066"></path><path d="M421 675L498 601.6L409 563.6Z" fill="#54595e" stroke="#54595e"></path><path d="M409 563.6L498 601.6L519 461.1Z" fill="#616a71" stroke="#616a71"></path><path d="M98 487.1L168 517.1L192 399.7Z" fill="#4a4c4f" stroke="#4a4c4f"></path><path d="M618 291.3L667 184.9L578 191.9Z" fill="#47494b" stroke="#47494b"></path><path d="M578 191.9L624 75.4L504 161.9Z" fill="#575c62" stroke="#575c62"></path><path d="M731 309.3L667 184.9L618 291.3Z" fill="#47494b" stroke="#47494b"></path><path d="M731 309.3L618 291.3L631 345.7Z" fill="#47494b" stroke="#47494b"></path><path d="M631 496.1L699 409.7L631 345.7Z" fill="#596066" stroke="#596066"></path><path d="M168 517.1L184 567.6L286 553.6Z" fill="#616a71" stroke="#616a71"></path><path d="M312 675L421 675L409 563.6Z" fill="#4f5356" stroke="#4f5356"></path><path d="M0 357.7L73 361.7L0 262.3Z" fill="#596066" stroke="#596066"></path><path d="M123 297.3L73 361.7L192 399.7Z" fill="#4a4c4f" stroke="#4a4c4f"></path><path d="M168 517.1L122 604.6L184 567.6Z" fill="#5c6369" stroke="#5c6369"></path><path d="M511 0L394 0L482 64.4Z" fill="#54595e" stroke="#54595e"></path><path d="M482 64.4L394 0L413 70.4Z" fill="#596066" stroke="#596066"></path><path d="M73 361.7L98 487.1L192 399.7Z" fill="#616a71" stroke="#616a71"></path><path d="M699 409.7L731 309.3L631 345.7Z" fill="#575c62" stroke="#575c62"></path><path d="M736 82.4L624 75.4L667 184.9Z" fill="#616a71" stroke="#616a71"></path><path d="M667 184.9L624 75.4L578 191.9Z" fill="#5e676d" stroke="#5e676d"></path><path d="M394 0L293 0L413 70.4Z" fill="#51565a" stroke="#51565a"></path><path d="M217 87.4L127 111.4L133 207.9Z" fill="#616a71" stroke="#616a71"></path><path d="M0 262.3L73 361.7L123 297.3Z" fill="#616a71" stroke="#616a71"></path><path d="M212 0L127 111.4L217 87.4Z" fill="#5e676d" stroke="#5e676d"></path><path d="M579 0L511 0L482 64.4Z" fill="#575c62" stroke="#575c62"></path><path d="M312 675L409 563.6L286 553.6Z" fill="#616a71" stroke="#616a71"></path><path d="M498 601.6L607 604.6L519 461.1Z" fill="#4c4f53" stroke="#4c4f53"></path><path d="M567 675L607 604.6L498 601.6Z" fill="#51565a" stroke="#51565a"></path><path d="M631 496.1L729 469.1L699 409.7Z" fill="#5e676d" stroke="#5e676d"></path><path d="M202 675L312 675L286 553.6Z" fill="#596066" stroke="#596066"></path><path d="M720 558.6L729 469.1L631 496.1Z" fill="#4c4f53" stroke="#4c4f53"></path><path d="M794 355.7L790 308.3L731 309.3Z" fill="#5e676d" stroke="#5e676d"></path><path d="M421 675L509 675L498 601.6Z" fill="#51565a" stroke="#51565a"></path><path d="M293 0L212 0L280 90.4Z" fill="#616a71" stroke="#616a71"></path><path d="M624 75.4L579 0L482 64.4Z" fill="#575c62" stroke="#575c62"></path><path d="M98 487.1L122 604.6L168 517.1Z" fill="#596066" stroke="#596066"></path><path d="M184 567.6L202 675L286 553.6Z" fill="#616a71" stroke="#616a71"></path><path d="M509 675L567 675L498 601.6Z" fill="#47494b" stroke="#47494b"></path><path d="M607 604.6L720 558.6L631 496.1Z" fill="#5c6369" stroke="#5c6369"></path><path d="M73 361.7L0 468.1L98 487.1Z" fill="#51565a" stroke="#51565a"></path><path d="M98 487.1L0 543.6L122 604.6Z" fill="#5c6369" stroke="#5c6369"></path><path d="M0 262.3L123 297.3L133 207.9Z" fill="#54595e" stroke="#54595e"></path><path d="M794 355.7L731 309.3L699 409.7Z" fill="#47494b" stroke="#47494b"></path><path d="M731 309.3L831 160.9L667 184.9Z" fill="#616a71" stroke="#616a71"></path><path d="M624 75.4L717 0L579 0Z" fill="#47494b" stroke="#47494b"></path><path d="M0 215.9L133 207.9L0 126.4Z" fill="#596066" stroke="#596066"></path><path d="M0 215.9L0 262.3L133 207.9Z" fill="#47494b" stroke="#47494b"></path><path d="M122 604.6L202 675L184 567.6Z" fill="#4f5356" stroke="#4f5356"></path><path d="M729 469.1L794 355.7L699 409.7Z" fill="#4c4f53" stroke="#4c4f53"></path><path d="M687 675L720 558.6L607 604.6Z" fill="#575c62" stroke="#575c62"></path><path d="M729 469.1L807 467.1L794 355.7Z" fill="#47494b" stroke="#47494b"></path><path d="M0 126.4L133 207.9L127 111.4Z" fill="#47494b" stroke="#47494b"></path><path d="M0 357.7L0 468.1L73 361.7Z" fill="#5e676d" stroke="#5e676d"></path><path d="M831 160.9L736 82.4L667 184.9Z" fill="#616a71" stroke="#616a71"></path><path d="M810 675L761 538.6L720 558.6Z" fill="#575c62" stroke="#575c62"></path><path d="M720 558.6L761 538.6L729 469.1Z" fill="#47494b" stroke="#47494b"></path><path d="M761 538.6L807 467.1L729 469.1Z" fill="#51565a" stroke="#51565a"></path><path d="M900 265.3L831 160.9L790 308.3Z" fill="#54595e" stroke="#54595e"></path><path d="M82 0L0 126.4L127 111.4Z" fill="#54595e" stroke="#54595e"></path><path d="M212 0L82 0L127 111.4Z" fill="#5e676d" stroke="#5e676d"></path><path d="M0 675L112 675L122 604.6Z" fill="#616a71" stroke="#616a71"></path><path d="M122 604.6L112 675L202 675Z" fill="#47494b" stroke="#47494b"></path><path d="M0 468.1L0 543.6L98 487.1Z" fill="#575c62" stroke="#575c62"></path><path d="M567 675L687 675L607 604.6Z" fill="#51565a" stroke="#51565a"></path><path d="M900 480.1L900 378.7L807 467.1Z" fill="#596066" stroke="#596066"></path><path d="M832 0L717 0L736 82.4Z" fill="#51565a" stroke="#51565a"></path><path d="M736 82.4L717 0L624 75.4Z" fill="#4c4f53" stroke="#4c4f53"></path><path d="M790 308.3L831 160.9L731 309.3Z" fill="#4c4f53" stroke="#4c4f53"></path><path d="M900 378.7L790 308.3L794 355.7Z" fill="#596066" stroke="#596066"></path><path d="M900 210.9L835 118.4L831 160.9Z" fill="#54595e" stroke="#54595e"></path><path d="M831 160.9L835 118.4L736 82.4Z" fill="#4c4f53" stroke="#4c4f53"></path><path d="M82 0L0 0L0 126.4Z" fill="#596066" stroke="#596066"></path><path d="M900 480.1L807 467.1L761 538.6Z" fill="#51565a" stroke="#51565a"></path><path d="M807 467.1L900 378.7L794 355.7Z" fill="#5c6369" stroke="#5c6369"></path><path d="M900 378.7L900 265.3L790 308.3Z" fill="#5e676d" stroke="#5e676d"></path><path d="M900 265.3L900 210.9L831 160.9Z" fill="#54595e" stroke="#54595e"></path><path d="M0 543.6L0 675L122 604.6Z" fill="#4a4c4f" stroke="#4a4c4f"></path><path d="M900 608.6L900 480.1L761 538.6Z" fill="#47494b" stroke="#47494b"></path><path d="M687 675L810 675L720 558.6Z" fill="#4a4c4f" stroke="#4a4c4f"></path><path d="M900 68.4L832 0L835 118.4Z" fill="#596066" stroke="#596066"></path><path d="M835 118.4L832 0L736 82.4Z" fill="#5c6369" stroke="#5c6369"></path><path d="M900 210.9L900 68.4L835 118.4Z" fill="#51565a" stroke="#51565a"></path><path d="M810 675L900 608.6L761 538.6Z" fill="#47494b" stroke="#47494b"></path><path d="M900 68.4L900 0L832 0Z" fill="#4c4f53" stroke="#4c4f53"></path><path d="M810 675L900 675L900 608.6Z" fill="#54595e" stroke="#54595e"></path></g></svg>