<svg id="visual" viewBox="0 0 900 675" width="900" height="675" xmlns="http://www.w3.org/2000/svg" xmlns:xlink="http://www.w3.org/1999/xlink" version="1.1"><path d="M0 123L13.7 114C27.3 105 54.7 87 82 81.3C109.3 75.7 136.7 82.3 163.8 90.2C191 98 218 107 245.2 109.2C272.3 111.3 299.7 106.7 327 96.5C354.3 86.3 381.7 70.7 409 65.2C436.3 59.7 463.7 64.3 491 63.2C518.3 62 545.7 55 573 59.5C600.3 64 627.7 80 654.8 95.8C682 111.7 709 127.3 736.2 125C763.3 122.7 790.7 102.3 818 88.8C845.3 75.3 872.7 68.7 886.3 65.3L900 62L900 0L886.3 0C872.7 0 845.3 0 818 0C790.7 0 763.3 0 736.2 0C709 0 682 0 654.8 0C627.7 0 600.3 0 573 0C545.7 0 518.3 0 491 0C463.7 0 436.3 0 409 0C381.7 0 354.3 0 327 0C299.7 0 272.3 0 245.2 0C218 0 191 0 163.8 0C136.7 0 109.3 0 82 0C54.7 0 27.3 0 13.7 0L0 0Z" fill="#d6b6fe"></path><path d="M0 197L13.7 201.5C27.3 206 54.7 215 82 209.3C109.3 203.7 136.7 183.3 163.8 181C191 178.7 218 194.3 245.2 195.5C272.3 196.7 299.7 183.3 327 183.3C354.3 183.3 381.7 196.7 409 191C436.3 185.3 463.7 160.7 491 146.2C518.3 131.7 545.7 127.3 573 145.3C600.3 163.3 627.7 203.7 654.8 220.5C682 237.3 709 230.7 736.2 228.5C763.3 226.3 790.7 228.7 818 230.8C845.3 233 872.7 235 886.3 236L900 237L900 60L886.3 63.3C872.7 66.7 845.3 73.3 818 86.8C790.7 100.3 763.3 120.7 736.2 123C709 125.3 682 109.7 654.8 93.8C627.7 78 600.3 62 573 57.5C545.7 53 518.3 60 491 61.2C463.7 62.3 436.3 57.7 409 63.2C381.7 68.7 354.3 84.3 327 94.5C299.7 104.7 272.3 109.3 245.2 107.2C218 105 191 96 163.8 88.2C136.7 80.3 109.3 73.7 82 79.3C54.7 85 27.3 103 13.7 112L0 121Z" fill="#cba5fe"></path><path d="M0 264L13.7 264C27.3 264 54.7 264 82 256.2C109.3 248.3 136.7 232.7 163.8 238.3C191 244 218 271 245.2 281.2C272.3 291.3 299.7 284.7 327 289.2C354.3 293.7 381.7 309.3 409 297C436.3 284.7 463.7 244.3 491 224.2C518.3 204 545.7 204 573 218.5C600.3 233 627.7 262 654.8 278.8C682 295.7 709 300.3 736.2 304.8C763.3 309.3 790.7 313.7 818 319.3C845.3 325 872.7 332 886.3 335.5L900 339L900 235L886.3 234C872.7 233 845.3 231 818 228.8C790.7 226.7 763.3 224.3 736.2 226.5C709 228.7 682 235.3 654.8 218.5C627.7 201.7 600.3 161.3 573 143.3C545.7 125.3 518.3 129.7 491 144.2C463.7 158.7 436.3 183.3 409 189C381.7 194.7 354.3 181.3 327 181.3C299.7 181.3 272.3 194.7 245.2 193.5C218 192.3 191 176.7 163.8 179C136.7 181.3 109.3 201.7 82 207.3C54.7 213 27.3 204 13.7 199.5L0 195Z" fill="#bf95fd"></path><path d="M0 501L13.7 508.8C27.3 516.7 54.7 532.3 82 507.5C109.3 482.7 136.7 417.3 163.8 398.2C191 379 218 406 245.2 439.8C272.3 473.7 299.7 514.3 327 527.8C354.3 541.3 381.7 527.7 409 515.2C436.3 502.7 463.7 491.3 491 479C518.3 466.7 545.7 453.3 573 456.8C600.3 460.3 627.7 480.7 654.8 504.3C682 528 709 555 736.2 567.3C763.3 579.7 790.7 577.3 818 558.2C845.3 539 872.7 503 886.3 485L900 467L900 337L886.3 333.5C872.7 330 845.3 323 818 317.3C790.7 311.7 763.3 307.3 736.2 302.8C709 298.3 682 293.7 654.8 276.8C627.7 260 600.3 231 573 216.5C545.7 202 518.3 202 491 222.2C463.7 242.3 436.3 282.7 409 295C381.7 307.3 354.3 291.7 327 287.2C299.7 282.7 272.3 289.3 245.2 279.2C218 269 191 242 163.8 236.3C136.7 230.7 109.3 246.3 82 254.2C54.7 262 27.3 262 13.7 262L0 262Z" fill="#af80f4"></path><path d="M0 676L13.7 676C27.3 676 54.7 676 82 676C109.3 676 136.7 676 163.8 676C191 676 218 676 245.2 676C272.3 676 299.7 676 327 676C354.3 676 381.7 676 409 676C436.3 676 463.7 676 491 676C518.3 676 545.7 676 573 676C600.3 676 627.7 676 654.8 676C682 676 709 676 736.2 676C763.3 676 790.7 676 818 676C845.3 676 872.7 676 886.3 676L900 676L900 465L886.3 483C872.7 501 845.3 537 818 556.2C790.7 575.3 763.3 577.7 736.2 565.3C709 553 682 526 654.8 502.3C627.7 478.7 600.3 458.3 573 454.8C545.7 451.3 518.3 464.7 491 477C463.7 489.3 436.3 500.7 409 513.2C381.7 525.7 354.3 539.3 327 525.8C299.7 512.3 272.3 471.7 245.2 437.8C218 404 191 377 163.8 396.2C136.7 415.3 109.3 480.7 82 505.5C54.7 530.3 27.3 514.7 13.7 506.8L0 499Z" fill="#9e6beb"></path></svg>